<svg xmlns="http://www.w3.org/2000/svg" xmlns:xlink="http://www.w3.org/1999/xlink" width="1427" height="1135" viewBox="0 0 1427 1135"><defs><linearGradient id="a" y1="0.5" x2="1" y2="0.5" gradientUnits="objectBoundingBox"><stop offset="0" stop-color="#fff"/><stop offset="1" stop-color="#aac4d8"/></linearGradient><clipPath id="b"><path d="M425.469,465.082s75.376-20.818,64.249-68.556L606.37,359.914,548.582,136.3,454.9,139.171s-91.169,42-88.656,46.661c2.513,4.307,33.381,137.83,33.381,137.83l-8.255,69.274-36.97,66.4Z" transform="translate(-354.4 -136.3)"/></clipPath><clipPath id="e"><rect width="1427" height="1135"/></clipPath></defs><g id="d" clip-path="url(#e)"><g transform="translate(-0.787)"><g transform="translate(-1139 -11)" opacity="0.283"><g transform="matrix(0.407, 0.914, -0.914, 0.407, 2076.792, 9)"><g transform="translate(0 0)"><path d="M370.936,143.988c97.292-86.659,201.52-179.062,319.12-130.627s188.148,313.8,164.59,507.614c-23.5,193.742-136.034,322.241-295.625,347.487s-219.578-76.305-295.187-124.74C200.722,703.3,123.113,701.952,50,622.03c-68.361-74.816-70.922-235.014,19.121-322.453S274.269,229.937,370.936,143.988Z" fill="#f1f8fe"/></g></g></g><g transform="translate(37.614 37.125)"><g transform="translate(283.483 68.882)"><g transform="translate(223.599 512.363)"><path d="M459.248,269c-20.818-5.384-45.943-3.23-67.479-4.307-22.254-1.077-55.634-2.513-71.427,16.511-1.436,1.795-2.154,3.948-3.948,5.384-3.589,2.871-13.281,4.666-17.588,6.1-1.436.359-9.332,1.795-9.691,3.948s4.307,4.666,4.307,5.743c7.179,8.255,20.818,8.614,30.868,10.409,14.716,2.513,29.791,3.23,44.508,3.948s28.356-2.871,43.072-4.307c14.716-1.795,32.663-1.077,45.584-9.691,7.179-4.666,10.409-12.2,12.2-20.459C471.81,273.67,467.862,271.516,459.248,269Z" transform="translate(-276.997 -106.36)" fill="#243551" opacity="0.15"/><g transform="translate(0 0)"><path d="M303.954,280.113l-2.154,16.87,53.122-16.152,34.816,25.843L422.4,289.445s-57.788-31.227-66.043-31.945C348.1,257.5,303.954,280.113,303.954,280.113Z" transform="translate(-244.099 -123.571)" fill="#d36e6e"/><g transform="translate(126.975)"><path d="M338.195,291.763l-1.795,48.1s16.87-30.868,16.511-39.482C351.834,264.484,344.655,239,344.655,239Z" transform="translate(-281.483 -171.473)" fill="#f7b7a9"/><path d="M345.014,239l-6.82,52.763-1.795,48.1s.718-1.436,2.154-3.948c-2.154-16.152,2.871-34.1,14-45.584C350.757,259.818,345.014,239,345.014,239Z" transform="translate(-281.483 -171.473)" fill="#243551"/><path d="M337.1,282.431c5.025,1.077,10.409,0,15.434-5.743C348.586,253.357,343.2,239,343.2,239Z" transform="translate(-279.671 -171.473)" fill="#0081a7"/><path d="M370.274,236.911s-9.691-3.589-21.895.718c-16.87,5.743-21.895,15.793-21.895,15.793s3.589,57.429,2.154,72.145A15.875,15.875,0,0,1,321.1,338.13s8.255,23.331,21.536,22.972c15.793-.359,38.406-8.255,38.406-8.255s7.538-32.663,7.538-41.277c.359-8.614-1.795-52.4-3.948-62.1C382.477,239.065,370.274,236.911,370.274,236.911Z" transform="translate(-321.1 -180.512)" fill="#0081a7"/><path d="M363.416,238.2c-21.177,19.741-26.561,44.508-29.073,73.581-1.077,15.075-2.154,29.073-5.743,41.995,15.075-1.795,32.663-7.9,32.663-7.9S368.8,313.217,368.8,304.6c.359-8.614-1.795-52.4-3.948-62.1A4.616,4.616,0,0,0,363.416,238.2Z" transform="translate(-301.68 -173.545)" opacity="0.15"/><path d="M327.3,231.718l5.025,17.588c.359,3.948,19.023,4.307,19.023-2.154L350.272,231Z" transform="translate(-305.046 -192.188)" fill="#f7b7a9"/><path d="M325.709,248.866c-.359,9.691,6.82,14.357,16.87,14.716,0,0,18.665-4.666,19.023-14.357l2.871-17.947L326.786,224.1Z" transform="translate(-309.198 -210.054)" fill="#f7b7a9"/><path d="M338.916,221.311s-13.639,2.871-14.716,4.666c0,0,.718,11.845,5.743,15.434,0,0,5.025,1.436,4.666,8.973s5.025,14,11.127,19.023c4.307,3.589,15.434-.718,15.434-.718a40.116,40.116,0,0,0,9.332-36.252C367.631,218.8,345.018,219.157,338.916,221.311Z" transform="translate(-313.073 -220.187)" fill="#b77b65"/><path d="M327.159,229.99l-.359,8.255c3.589,1.795,6.82-2.871,6.461-7.179C332.543,225.324,327.159,229.99,327.159,229.99Z" transform="translate(-306.341 -199.433)" fill="#f7b7a9"/></g><path d="M304,265.576c-5.384-1.077-17.229-2.513-16.152,3.948,1.077,6.82,3.948,7.538,24.407,14.357,20.818,6.82,11.845-18.664,11.845-18.664S309.385,266.294,304,265.576Z" transform="translate(-280.399 -105.086)" fill="#243551"/><path d="M308.619,270.839A63.08,63.08,0,0,1,300,266.531c-3.948-2.513-11.486-2.154-11.845,2.154-.718,5.025,2.871,7.179,23.331,14,20.818,6.82,10.768-10.768,10.768-10.768S313.644,272.633,308.619,270.839Z" transform="translate(-279.633 -104.247)" fill="#005163"/><path d="M301.071,270.481c-2.513-.359-7.538-2.871-12.2,0-4.307,2.871-5.025,11.127,3.23,14.716,8.255,3.23,24.407,10.409,27.638,10.05s9.691-2.154,10.05-7.179,1.077-10.05,1.077-10.05l-13.639-5.384C317.223,272.276,303.584,270.84,301.071,270.481Z" transform="translate(-285.724 -93.48)" fill="#243551"/><path d="M358.954,277.716C352.493,276.639,337.059,263,337.059,263L316.6,290.638s18.306,19.741,31.227,19.741,29.791-2.154,35.893-9.691c12.563-16.152,11.127-26.92,11.127-26.92S367.568,279.152,358.954,277.716Z" transform="translate(-205.777 -109.33)" fill="#ff8484"/><path d="M349.461,270.207c.359,15.793-10.768,29.432-26.561,30.15a18.856,18.856,0,0,0,8.255,2.154c12.922,0,29.791-2.154,35.893-9.691,12.563-16.152,11.127-26.92,11.127-26.92S360.947,269.489,349.461,270.207Z" transform="translate(-189.464 -101.821)" opacity="0.15"/><path d="M325.888,255.558c-3.948-2.513-13.639-2.871-17.588,0a.352.352,0,0,0-.359.359c-6.1,3.948-6.82,7.538-2.154,12.922l55.634,55.275,23.331-21.536-12.2-14.716Z" transform="translate(-241.626 -133.833)" fill="#ff8484"/><path d="M325.3,262.832c-3.948,9.691-30.15,49.532-30.15,49.532s-3.948,5.025,1.795,10.05c5.743,5.384,12.2.718,12.2.718s28-20.459,30.509-25.484c6.82-14.357,8.614-33.381,8.614-33.381L337.15,253.5C337.15,253.859,329.253,253.141,325.3,262.832Z" transform="translate(-264.732 -133.928)" fill="#ff8484"/><path d="M391.907,237.775c-13.639,2.871-14.716,14.716-14.716,14.716L363.551,290.9l-34.457-3.589-12.2-.718-10.409,3.589-4.666,8.614s-.359-.718,0,1.436a2.515,2.515,0,0,0,2.154,1.795l3.23-2.513,7.538-1.077A27.268,27.268,0,0,0,330.171,297s12.563,7.179,41.277,10.05a5.552,5.552,0,0,0,6.1-3.23l14.716-39.124C392.984,264.695,405.905,234.544,391.907,237.775Z" transform="translate(-244.473 -175.273)" fill="#f7b7a9"/><path d="M391.533,237.775c-13.639,2.871-14.716,14.716-14.716,14.716l-.718,1.795c6.1,1.795,10.768,7.179,8.614,14.716-2.513,8.614-3.948,17.229-11.486,23.331-7.179,5.743-16.152,6.461-25.125,5.384-15.434-1.795-31.945-2.513-46.3,3.23a1.927,1.927,0,0,0,2.154,1.077l3.23-2.512,7.538-1.077A27.268,27.268,0,0,0,330.156,297s12.563,7.179,41.277,10.05a5.552,5.552,0,0,0,6.1-3.23l14.716-39.124C392.61,264.695,405.531,234.544,391.533,237.775Z" transform="translate(-244.099 -175.273)" fill="#243551" opacity="0.15"/></g><path d="M345.961,237.775c-13.639,2.871-16.87,13.28-16.87,13.28L319.4,279.411c6.461,5.025,16.511,8.614,24.048,9.691l3.589-24.766C347.038,264.695,359.959,234.544,345.961,237.775Z" transform="translate(-198.527 -175.273)" fill="#0081a7"/></g><g transform="translate(0)"><g transform="translate(34.872 414.57)"><path d="M225.443,169.685c-2.583,1.614-4.843,5.166-4.843,8.072l.323,73.618c0,2.906,2.26,4.2,4.843,2.583s4.843-5.166,4.843-8.072l-.323-73.618C229.964,169.363,228.026,168.071,225.443,169.685Z" transform="translate(-220.6 -168.982)" fill="#fff"/></g><g transform="translate(61.671 38.787)"><path d="M228.9,272.486l.969,350.978L610.553,403.9l-.969-351.3Z" transform="translate(-228.9 -52.6)" fill="#1b283d"/></g><g transform="translate(61.671 38.787)"><path d="M228.9,272.486l.969,46.819L610.553,99.742,609.584,52.6Z" transform="translate(-228.9 -52.6)" fill="#30afe8"/></g><g transform="translate(18.727 10.996)"><path d="M667.965,45.953,229.807,298.773c-8.072,4.52-14.207,15.822-14.207,24.862l.969,336.771c0,9.041,6.458,12.915,14.53,8.072L668.934,415.659c8.072-4.52,14.207-15.822,14.207-24.862l-.969-336.771C682.172,44.984,675.714,41.432,667.965,45.953ZM236.588,427.605c2.583-1.614,4.843-.323,4.843,2.583s-1.937,6.781-4.843,8.072c-2.583,1.614-4.843.323-4.843-2.583S234,429.22,236.588,427.605Zm.323,104.938c-2.583,1.614-4.843.323-4.843-2.583l-.323-73.618c0-2.906,1.937-6.781,4.843-8.072,2.583-1.614,4.843-.323,4.843,2.583l.323,73.618A11.838,11.838,0,0,1,236.911,532.544Zm22.6,110.1-.969-351.3L639.228,71.461l.969,351.3Z" transform="translate(-215.6 -43.993)" fill="#fff"/></g><g transform="translate(34.872 393.905)"><path d="M225.443,163.285c-2.583,1.614-4.843,5.166-4.843,8.072s2.26,4.2,4.843,2.583,4.843-5.166,4.843-8.072C229.964,162.963,228.026,161.671,225.443,163.285Z" transform="translate(-220.6 -162.582)" fill="#fff"/></g><path d="M662.165,42.565,224.007,295.386c-8.072,4.52-14.207,15.822-14.207,24.862l.969,336.771c0,4.52,1.614,7.749,4.2,9.364l18.727,10.978c-2.583-1.614-4.2-4.843-4.2-9.364l-.969-336.772c0-9.041,6.458-20.342,14.207-24.862L680.892,53.543c3.875-2.26,7.749-2.583,10.333-.969L672.5,41.6C669.591,39.982,666.04,40.3,662.165,42.565Z" transform="translate(-209.8 -40.587)" fill="#243551"/><g transform="translate(283.172 346.638)"><g transform="translate(94.283)"><path d="M353.177,148.45,330.9,161.365a9.806,9.806,0,0,0-4.2,7.426V194.3c0,2.583,1.937,3.875,4.2,2.583l22.279-12.916a9.806,9.806,0,0,0,4.2-7.426V151.033C357.374,148.45,355.437,147.158,353.177,148.45Z" transform="translate(-326.7 -147.943)" fill="#243551"/></g><g transform="translate(47.141 27.895)"><path d="M338.577,157.285,316.3,170.2a9.806,9.806,0,0,0-4.2,7.426v25.508c0,2.583,1.937,3.875,4.2,2.583L338.577,192.8a9.806,9.806,0,0,0,4.2-7.426V159.869C342.774,156.963,340.837,155.671,338.577,157.285Z" transform="translate(-312.1 -156.582)" fill="#243551"/></g><g transform="translate(0 55.805)"><path d="M323.977,165.787,301.7,178.7a9.806,9.806,0,0,0-4.2,7.426v25.508c0,2.583,1.937,3.875,4.2,2.583l22.279-12.916a9.806,9.806,0,0,0,4.2-7.426V168.371C328.174,165.465,326.237,164.5,323.977,165.787Z" transform="translate(-297.5 -165.226)" fill="#243551"/></g></g><g transform="translate(188.566 429.888)"><g transform="translate(47.142)"><path d="M309.277,174.287,287,187.2a9.806,9.806,0,0,0-4.2,7.426v25.508c0,2.583,1.937,3.875,4.2,2.583l22.279-12.915a9.806,9.806,0,0,0,4.2-7.426V176.871C313.474,173.965,311.537,173,309.277,174.287Z" transform="translate(-282.8 -173.726)" fill="#243551"/></g><g transform="translate(0 27.823)"><path d="M294.677,182.85,272.4,195.765a9.806,9.806,0,0,0-4.2,7.426V228.7c0,2.583,1.937,3.875,4.2,2.583l22.279-12.915a9.806,9.806,0,0,0,4.2-7.426V185.433C298.874,182.85,296.937,181.558,294.677,182.85Z" transform="translate(-268.2 -182.343)" fill="#243551"/></g></g><g transform="translate(76.847 245.435)"><path d="M233.6,194.739l.323,158.861L370.5,275.461,370.181,116.6Z" transform="translate(-233.6 -116.6)" fill="#243551"/></g><g transform="translate(221.501 203.459)"><path d="M278.4,140.732v73.941l64.577-37.132-.323-73.941Z" transform="translate(-278.4 -103.6)" fill="#c1deea"/></g><g transform="translate(293.505 161.807)"><path d="M300.7,128.155l.323,73.941,64.255-37.132V90.7Z" transform="translate(-300.7 -90.7)" fill="#c1deea"/></g><g transform="translate(365.831 120.477)"><path d="M323.1,115.032l.323,73.941,64.255-37.132V77.9Z" transform="translate(-323.1 -77.9)" fill="#c1deea"/></g><g transform="translate(221.501 288.056)"><path d="M278.4,166.932V241.2l64.577-37.455-.323-73.941Z" transform="translate(-278.4 -129.8)" fill="#243551"/></g><g transform="translate(293.505 246.726)"><path d="M300.7,154.132l.323,73.941,64.255-37.132V117Z" transform="translate(-300.7 -117)" fill="#243551"/></g><g transform="translate(365.831 205.074)"><path d="M323.1,141.232l.323,74.264,64.255-37.455V104.1Z" transform="translate(-323.1 -104.1)" fill="#243551"/></g></g><path d="M235.1,334.849l117.854-67.484V181.8L235.1,249.606Z" transform="translate(-153.409 274.157)" opacity="0.15"/><g transform="translate(0.646 446.271)"><path d="M210,447.765l13.561,7.749L689.81,186.549,676.249,178.8Z" transform="translate(-210 -178.8)" opacity="0.7" fill="url(#a)"/></g><g transform="translate(91.109 476.46)"><path d="M245.3,252.183l.323,93.314,117.208-67.483-.323-93.314Z" transform="translate(-245.3 -184.7)" fill="#fff"/><g transform="translate(0 0)"><path d="M245.3,252.183l.323,93.314,117.208-67.483-.323-93.314Zm7.1,2.583,12.27-7.1v7.749l-12.27,7.1Zm.323,80.076v-7.749l12.27-7.1v7.749Zm17.759-90.408,12.27-7.1v7.749l-12.27,7.1Zm.323,80.076v-7.749l12.27-7.1v7.749Zm18.082-90.731,12.27-7.1v7.749l-12.27,7.1Zm0,80.076v-7.749l12.27-7.1v7.749Zm18.082-90.408,12.27-7.1v7.749l-12.27,7.1Zm.323,80.076v-7.749l12.27-7.1v7.749Zm17.759-90.731,12.27-7.1v7.749l-12.27,7.1Zm.323,80.076v-7.749l12.27-7.1v7.749Zm17.759-90.408,12.27-7.1V203.1l-12.27,7.1Zm.323,80.076v-7.749l12.27-7.1v7.749Z" transform="translate(-245.3 -184.7)" fill="#30afe8"/></g></g><g transform="translate(401.993 451.701)"><g transform="translate(0 85.565)"><path d="M636.2,210.269c-47.787-10.332-100.741,4.52-118.177,32.934-7.426,11.947-7.1,24.539-.646,35.84,7.426,19.373,16.79,77.816-121.406,99.772-25.508,3.875-47.142,14.853-56.828,30.351C323.968,434.03,345.6,461.8,387.9,470.839c15.821,3.229,156.923-.323,234.416-60.38C697.549,352.34,703.038,305.2,696.9,262.9,698.195,239.975,674.624,218.341,636.2,210.269Z" transform="translate(-334.3 -206.982)" fill="#243551" opacity="0.15"/></g><g transform="translate(362.604 54.304)"><path d="M446.6,198.914l.323,68.775v-1.614L446.6,197.3A1.441,1.441,0,0,1,446.6,198.914Z" transform="translate(-446.6 -197.3)" fill="#fff"/></g><path d="M394.343,214.936A33.852,33.852,0,0,1,389.5,197.5l.323,68.775a34.721,34.721,0,0,0,4.843,17.436,57.153,57.153,0,0,1,3.552,19.05l-.323-68.775A50.026,50.026,0,0,0,394.343,214.936Z" transform="translate(-211.265 -142.551)" fill="#eaf3f5"/><path d="M636.2,183.769c-47.787-10.332-100.741,4.52-118.177,32.935-7.426,11.947-7.1,24.539-.646,35.84,7.426,19.373,16.79,77.816-121.406,99.772-25.508,3.875-47.142,14.853-56.828,30.351C323.968,407.53,345.6,435.3,387.9,444.339a138.4,138.4,0,0,0,47.464,1.292c5.489,0,109.459-1.614,186.952-61.672C697.549,325.84,703.038,278.7,696.9,236.4,698.195,213.8,674.624,192.164,636.2,183.769Z" transform="translate(-334.3 -180.482)" fill="#84c3d7"/><path d="M622.315,329.634c-77.493,60.057-218.595,63.609-234.416,60.38-32.935-7.1-53.6-25.508-53.6-45.2l.323,68.775c0,19.7,20.665,38.1,53.6,45.2,15.821,3.229,156.923-.323,234.416-60.38,61.994-47.787,76.524-88.471,76.524-124.635L698.84,205C698.84,241.163,684.31,281.524,622.315,329.634Z" transform="translate(-334.299 -125.834)" fill="#69b5cf"/></g><path d="M597.08,214.443c-18.727-3.552-29.383,3.229-39.069,17.436-9.041,12.915-20.988,16.467-35.518,20.988-26.477,8.4-51.016,16.79-74.91,31q-15.5,9.2-31.966,17.436c-10.009,5.166-21.633,9.041-30.674,16.144-3.875,2.906-6.458,6.135-10.655,8.718-6.458,4.2-10.978,5.489-18.082,7.749-2.906.969-7.749,2.906-6.458,7.749,2.906,6.135,20.988,5.166,26.477,4.843,10.01,0,14.853-6.135,22.925-11.3,5.166-3.552,10.655-6.458,15.5-10.01,3.875-2.906,9.687-9.041,14.207-10.332,12.593-3.229,4.2,23.571,1.292,28.414-4.843,7.426-10.332,10.01-18.4,12.915-4.2,1.614-9.687,2.583-9.364,8.4a95.254,95.254,0,0,0,28.737-4.2c8.4-2.906,20.019-3.875,25.508-11.624,9.041-12.27-2.906-44.558,16.79-49.4,5.489-1.292,12.27,0,18.082.323,7.426.323,15.176,0,22.6,0,8.072,0,18.4.969,26.477-.969,9.041-1.937,20.342-7.749,28.091-12.27,9.041-5.489,15.5-14.53,23.571-21.311,5.489-4.52,11.947-6.135,18.727-8.072,6.135-1.937,16.467-3.552,20.665-9.041C643.9,231.233,607.735,216.7,597.08,214.443Z" transform="translate(101.648 344.838)" opacity="0.15"/><g transform="translate(452.771 276.864)"><g transform="translate(0 0)" clip-path="url(#b)"><path d="M446.752,194.1c-14.357.359-26.561,5.384-35.893,15.793-7.179,8.255-15.793,15.793-20.459,24.766,25.484,0,69.633-3.23,82.554-16.152,4.666-4.666,8.255-21.536,3.589-28.356C471.16,182.612,454.649,194.1,446.752,194.1Z" transform="translate(-261.185 -3.505)" opacity="0.15"/></g><g transform="translate(0 0)" clip-path="url(#b)"><path d="M454.232,172.329c-12.2-1.077-48.456-8.255-48.456-8.255l-20.1-6.461L361.269,155.1s-.718,1.436,1.795,2.512a57.323,57.323,0,0,0,8.614,2.154s.718,11.127,2.513,11.486,8.255,2.871,8.255,2.871l-.359-1.795s9.691,1.436,14.357-1.077l.359-.359c6.461,3.23,43.79,16.511,53.481,20.1a7,7,0,0,0,4.666.359l55.634-6.82,2.512-25.484C513.1,158.33,471.461,173.406,454.232,172.329Z" transform="translate(-336.861 -87.621)" fill="#b77b65"/><path d="M375.007,160.895A21.959,21.959,0,0,1,370.7,159.1l.359.359c1.795,1.795,43.79,16.87,54.558,20.459a7,7,0,0,0,4.666.359l55.634-6.82,1.436-14c-11.845,5.743-23.69,11.127-36.611,13.28C427.052,176.688,397.261,167.714,375.007,160.895Z" transform="translate(-312.194 -77.263)" opacity="0.15"/><path d="M434.847,155.56c-7.537-5.384-22.254,2.872-30.15,22.972-2.871,6.82-7.9,10.409-7.9,17.947,0,6.82,7.9,14.716,7.9,14.716s6.1,22.254,15.793,48.1c3.23,7.9-12.563,18.306-12.563,18.306l24.766,29.074s33.022,6.82,29.073-44.149C458.177,211.553,442.384,160.944,434.847,155.56Z" transform="translate(-244.613 -90.593)" fill="#0081a7"/><path d="M395.948,213.625c-13.281,5.025-19.023,15.434-18.306,20.1s11.127,93.681,11.127,93.681l13.639-1.436s5.025-33.022,5.025-47.379c0-6.1-3.23-40.2-3.23-40.2L482.81,220.8c25.484-2.154,27.638-22.613,27.638-22.613L464.5,188.5C464.863,188.5,409.588,208.6,395.948,213.625Z" transform="translate(-294.371 -1.138)" fill="#b77b65"/><path d="M410.557,141.145s-5.384,2.512-10.409,9.332c-3.23,4.307-.718,15.075-.718,15.075l-3.23,8.973a5.328,5.328,0,0,0,3.23,1.795l3.948,13.639s0,4.666,13.28-.359c15.793-6.1,17.947-9.691,20.1-16.87C439.272,163.758,444.3,132.172,410.557,141.145Z" transform="translate(-246.166 -127.865)" fill="#b77b65"/><path d="M401.3,163.21l2.154,7.179a9.249,9.249,0,0,0,7.179,3.589c9.332,0,9.332-4.666,9.332-4.666s-.718-11.845-1.436-19.741C417.811,142.033,401.3,163.21,401.3,163.21Z" transform="translate(-232.961 -106.139)" fill="#b77b65"/><path d="M437.274,183.4a123.613,123.613,0,0,1-3.948,15.793S406.047,214.268,388.1,220.37a100.936,100.936,0,0,1,12.922,26.561l54.916-12.563a37.208,37.208,0,0,0,16.511-5.384c.359-.359.718-.359,1.077-.718h.359a9.517,9.517,0,0,0,2.154-1.795l.359-.359h0c12.922-10.409,8.973-28.356,8.255-39.124C469.578,193.809,451.272,191.655,437.274,183.4Z" transform="translate(-267.14 -14.343)" fill="#c1deea"/><path d="M471.024,186.095c-.359,16.87-10.05,31.945-26.2,40.918-16.511,8.973-35.175,11.486-52.763,16.87H391.7v.359l54.916-12.563a37.21,37.21,0,0,0,16.511-5.384c.359-.359.718-.359,1.077-.718h.359a9.515,9.515,0,0,0,2.154-1.795l.359-.359h0c12.922-10.409,8.973-28.356,8.255-39.124C473.536,185.018,472.46,185.377,471.024,186.095Z" transform="translate(-257.818 -12.013)" opacity="0.15"/><path d="M424.556,138.6c-28.356.359-28.356,18.305-28.356,18.305s11.486,3.948,11.127,7.179c-.359,3.589,2.871,32.663,12.922,39.482s21.536,11.486,25.484,6.82,2.513-25.125,0-38.047C443.579,160.495,441.784,138.6,424.556,138.6Z" transform="translate(-246.166 -130.345)" fill="#412928"/><path d="M397.211,230.3a73.5,73.5,0,0,1-6.1,17.229c-2.871,6.1-17.947,16.152-16.87,18.664s4.666,4.666,14.357,0c5.743-2.513,14.357-11.127,18.664-11.845,4.307-1.077,14.716-6.461,15.793-11.845.718-3.23-10.768-18.306-10.768-18.306Z" transform="translate(-303.171 91.301)" fill="#fff"/><path d="M377.745,235.8c.359,2.154,2.871,24.048,5.384,46.3v-.359c2.154-3.589,12.2-22.613,14.357-30.868,4.666-15.793,2.154-24.407,10.409-33.74,9.332-10.409,47.02-16.511,57.07-29.432-10.409,3.948-64.967,26.2-69.633,28C382.412,220.722,377.028,231.131,377.745,235.8Z" transform="translate(-294.114 -3.209)" opacity="0.15"/><path d="M419.2,198.139c-7.179,1.077-17.588,2.871-19.382,7.538S371.1,314.433,371.1,314.433l14,.359s24.407-53.84,26.561-59.583c2.513-5.743,5.743-32.3,5.743-32.3l63.89-24.048L476.267,184.5C476.626,184.5,428.529,197.063,419.2,198.139Z" transform="translate(-311.158 -11.495)" fill="#b77b65"/><path d="M388.2,195.268a56.99,56.99,0,0,1,2.154,21.895l47.02-18.306L432.349,184.5S407.582,190.961,388.2,195.268Z" transform="translate(-266.881 -11.495)" fill="#c1deea"/><path d="M405.09,221.195a25.42,25.42,0,0,1-9.332-1.795,82.845,82.845,0,0,1-11.486,11.845c-5.025,4.307-22.972,7.179-22.972,10.05s2.154,6.1,12.922,6.1c6.461,0,17.588-4.307,21.895-3.23,4.307.718,16.152,0,19.382-4.666,1.795-2.154-1.077-15.075-2.154-19.741A30.578,30.578,0,0,1,405.09,221.195Z" transform="translate(-336.534 78.872)" fill="#0081a7"/><path d="M387.343,242.113c-8.614,2.154-17.229,1.436-25.843,1.436,1.436,1.795,4.666,3.23,12.2,3.23,6.461,0,17.588-4.307,21.895-3.23,4.307.718,16.152,0,19.382-4.666,1.436-2.154-1.077-15.075-2.154-19.382C408.52,230.627,399.547,239.241,387.343,242.113Z" transform="translate(-336.016 79.131)" opacity="0.15"/><path d="M410.3,160.4c2.871,24.407,5.025,49.533,3.948,73.94a111.569,111.569,0,0,1-2.154,15.793c1.436-.359,2.871-.718,4.666-1.077a50.138,50.138,0,0,0,10.409-3.23v-.359C424.3,213.163,417.12,181.218,410.3,160.4Z" transform="translate(-209.657 -73.897)" opacity="0.15"/><path d="M386.83,198.4c-1.077,0-2.154.359-3.23.359h1.077c21.536,2.154,65.326,2.154,78.965-11.127l-19.382-3.23C444.259,184.759,396.163,197.322,386.83,198.4Z" transform="translate(-278.792 -11.754)" opacity="0.15"/><path d="M442.929,164.646c-7.538,10.409,5.025,67.838-1.077,71.427S391.961,253.3,391.961,253.3l-6.461,10.05s70.71-3.589,76.452-12.2c5.743-8.973.359-78.606.359-78.606C461.593,152.084,446.518,159.621,442.929,164.646Z" transform="translate(-273.872 -77.426)" fill="#b77b65"/></g></g><g transform="translate(423.202 439.587)"><path d="M451.643,253.786,425.8,282.142c22.972,8.973,40.918,3.948,43.431-5.025,5.384-19.741-9.691-75.017-9.691-75.017Z" transform="translate(-139.954 -128.646)" fill="#ff8484"/><path d="M459.9,228.406c-.359-6.82-3.23-12.2-6.1-18.306l-2.154,23.331L425.8,261.786c15.793,6.1,28.715,5.743,36.611,2.154A16.491,16.491,0,0,1,459.9,258.2C457.027,247.429,460.257,238.815,459.9,228.406Z" transform="translate(-139.954 -107.932)" opacity="0.15"/><g transform="translate(269.274 0)"><path d="M423.5,197.03l6.82,26.92c0,7.538,23.69-1.795,23.69-9.332L449.7,193.8Z" transform="translate(-415.183 -150.138)" fill="#f8c4b8"/><path d="M422.234,214.315c-.718,11.486,6.82,16.87,17.588,17.588,0,0,20.459-5.025,21.177-16.152l3.589-20.459L424.029,185.6Z" transform="translate(-418.583 -171.37)" fill="#f8c4b8"/><path d="M437.037,182.585c-8.973,3.23-23.69,11.486-10.768,21.536,0,0,5.384,1.795,5.025,10.409l14.357,23.689c4.666,4.307,13.639-1.795,13.639-1.795s14-14,9.332-40.2C465.393,180.79,443.5,180.431,437.037,182.585Z" transform="translate(-421.183 -181.635)" fill="#45393f"/><path d="M424.118,192.243l-.718,9.332c3.948,2.154,7.538-3.23,7.179-7.9C430.22,187.218,424.118,192.243,424.118,192.243Z" transform="translate(-415.442 -158.99)" fill="#f8c4b8"/></g><path d="M416.108,248.636,400.674,247.2a36.5,36.5,0,0,1-6.1,15.075c-5.025,6.1-25.484,18.306-25.484,18.306a7.5,7.5,0,0,0-3.23,8.614c1.077,3.23,3.948,6.1,12.563,5.384,17.229-1.436,29.432-13.281,35.893-14.716,10.768-2.154,7.9-10.768,6.461-16.511C418.98,257.25,416.108,248.636,416.108,248.636Z" transform="translate(-296.089 -11.868)" fill="#f8c4b8"/><path d="M419.7,254.032c-14.357-11.486-26.2,1.436-26.2,1.436L369.088,274.85a7.5,7.5,0,0,0-3.23,8.614c1.077,3.23,3.948,6.1,12.563,5.384,17.229-1.436,29.432-13.281,35.893-14.716,10.768-2.154,7.9-10.768,6.461-16.511A22.287,22.287,0,0,1,419.7,254.032Z" transform="translate(-296.089 -6.496)" fill="#c1deea"/><path d="M415.391,252c-2.871-.718-11.127,1.436-15.075,3.23-6.461,2.513-12.563,6.1-19.382,8.614-2.154.718-4.307,1.436-6.82,2.512-.359,0-7.179,2.513-8.614,8.973a3.235,3.235,0,0,0,.359,1.795c1.077,3.23,3.948,6.1,12.563,5.384,17.229-1.436,29.432-13.281,35.893-14.716,7.9-1.436,8.614-6.1,7.538-11.127C420.417,253.438,416.827,252.72,415.391,252Z" transform="translate(-296.09 0.2)" fill="#b7cace"/><path d="M383.986,254.073c-5.384,1.077-26.2-3.23-35.534,0-2.871.718-3.23,6.461,0,11.486,1.436,2.513,3.589,6.82,12.922,8.973,6.1,1.436,10.409-2.872,19.741,0s15.075,2.512,19.741-6.1,21.177-18.664,21.177-18.664L404.445,245.1C404.086,245.1,395.831,251.92,383.986,254.073Z" transform="translate(-346.162 -17.306)" fill="#f8c4b8"/><path d="M390.088,247c-1.077.359-8.255.718-8.973,1.077-5.384,1.077-23.331-1.795-32.663,1.077-2.871.718-3.23,6.461,0,11.486,1.436,2.513,3.589,6.82,12.922,8.973,6.1,1.436,10.409-2.872,19.741,0s16.152,2.512,21.536-8.973C402.651,260.639,407.317,247.718,390.088,247Z" transform="translate(-346.162 -12.386)" fill="#c1deea"/><path d="M386.847,253.449c-5.384-2.871-12.922-2.512-18.665-3.589-7.538-1.436-13.639-2.512-21.177-1.795-1.436,2.154-1.077,6.461,1.436,10.409,1.436,2.512,3.589,6.82,12.922,8.973,6.1,1.436,10.409-2.871,19.741,0,6.461,1.795,11.127,2.513,14.716-.359C394.385,261.7,391.872,256.32,386.847,253.449Z" transform="translate(-346.151 -10.22)" fill="#b7cace"/><path d="M497.053,256.941H429.215L360.3,321.908s6.461.718,8.255,2.513c3.23,3.23,2.154,8.614,2.154,8.614l70.71-45.225s70.351,7.179,85.426,7.179c22.971,0,32.663-13.639,32.663-13.639l3.948-51.686L514.641,217.1Z" transform="translate(-309.554 -89.807)" fill="#0081a7"/><path d="M417.63,225.384a42.185,42.185,0,0,1,4.307,12.922l1.077-16.152L414.4,220A21.421,21.421,0,0,1,417.63,225.384Z" transform="translate(-169.472 -82.297)" fill="#243551"/><path d="M466.931,252.413c-27.279,4.666-55.275.359-82.913,1.795H383.3v1.077c10.05,1.077,69.992,7.179,83.99,7.179,22.972,0,32.663-13.639,32.663-13.639l1.436-19.023a27.109,27.109,0,0,1-4.666,8.255C489.185,246.67,478.058,250.618,466.931,252.413Z" transform="translate(-250 -56.922)" opacity="0.15"/><path d="M489.8,245.289H439.193c1.436,7.9-1.436,16.511-10.05,21.895-21.536,13.639-42.354,28-61.377,44.508a18.25,18.25,0,0,1-4.666,3.23,11.423,11.423,0,0,1,.718,6.461s71.068-45.225,71.786-45.225c6.1-3.589,13.281-12.922,19.023-16.152,5.384-3.589,52.045-5.384,52.045-8.255-.359-7.538-3.23-21.895-6.1-30.15Z" transform="translate(-302.304 -78.155)" opacity="0.15"/><path d="M411.711,226.791a23.05,23.05,0,0,0-19.382,16.87L375.1,329.8s7.9-7.538,17.947,1.436l24.407-68.915,71.427,3.948L476.319,217.1Z" transform="translate(-271.232 -89.807)" fill="#0081a7"/><path d="M402.607,241.645c-2.512,5.384-22.613,50.609-24.407,53.122a15.743,15.743,0,0,1,6.461,3.948L409.068,229.8a1.865,1.865,0,0,0-1.436.718C406.555,231.236,403.684,239.132,402.607,241.645Z" transform="translate(-263.205 -56.922)" opacity="0.15"/><path d="M496.056,206.423c-17.588-5.743-57.07-16.87-55.275-2.154,4.307,40.559-33.381,59.583-33.381,59.583s28.715,20.818,30.15,69.633c0,0,66.043-43.79,71.427-87.579,1.077-10.05,1.436-17.588.718-22.972A20.823,20.823,0,0,0,496.056,206.423Z" transform="translate(-187.597 -141.942)" fill="#ff8484"/><path d="M421.243,260.1c-1.795.718-3.948,1.436-5.743,2.154.359,3.948.718,7.9,1.077,12.2,0,0,36.611-24.407,57.429-54.558a40.92,40.92,0,0,1-3.948,3.948C456.418,236.77,438.472,251.845,421.243,260.1Z" transform="translate(-166.624 -82.556)" opacity="0.15"/><path d="M396.813,223.132s-10.409,10.409-4.666,9.332c2.513-.359,20.459-2.871,20.459-2.871L411.529,213.8Z" transform="translate(-231.568 -98.351)" fill="#f8c4b8"/><path d="M488.98,200.551s-15.793-9.332-23.331,3.589c-7.179,12.922-19.023,44.149-19.023,44.149l-48.815,8.973s-5.025,5.025,0,16.152l51.327,2.871s13.639,2.871,19.741-8.255C482.519,243.623,507.285,206.294,488.98,200.551Z" transform="translate(-218.209 -141.095)" fill="#ff8484"/><path d="M422.043,260.624a15.268,15.268,0,0,1-3.948-.718c-7.179.718-14.716,1.077-21.895,1.436,0,.359.359.718.359,1.077l51.327,2.872s13.639,2.871,19.741-8.255c9.332-17.229,24.766-41.277,26.2-55.634-4.307,13.639-10.768,26.92-19.741,37.688C459.731,255.6,443.938,263.136,422.043,260.624Z" transform="translate(-216.598 -130.459)" opacity="0.15"/></g><g transform="translate(101.969 276.702)"><path d="M240.169,177.681l-10.332,6.135,16.79-48.756c.323-1.292,0-2.26-.646-2.26-.323,0-.323,0-.646.323a3.307,3.307,0,0,0-1.615,1.937l-17.436,50.693-.646.323-12.27-25.185c-.323-.646-.969-.646-1.614-.323-.323,0-.323.323-.646.646a2.922,2.922,0,0,0-.969,2.906l11.947,23.894-37.132,21.633c-5.812,3.229-10.655,11.624-10.655,18.082v42.3c0,6.781,4.843,9.364,10.655,6.135,1.615-.969,2.906-.323,2.906,1.614v1.292c0,1.937,1.292,2.583,2.906,1.614L234.034,255.5a6.575,6.575,0,0,0,2.906-5.166v-1.292a6.576,6.576,0,0,1,2.906-5.166c5.812-3.229,10.655-11.624,10.655-18.082v-42.3C250.824,177.036,246.3,174.452,240.169,177.681Zm-57.151,85.888V224.823L242.429,190.6v38.747Z" transform="translate(-174.3 -132.8)" fill="#6c6dac"/></g><g transform="translate(323.32 126.073)"><g transform="translate(12.27 236.676)"><path d="M332.9,159.676v30.351l26.477-15.176V144.5Z" transform="translate(-332.9 -144.5)" fill="#243551"/></g><g transform="translate(82.013 196.315)"><path d="M354.5,147.5V177.85l26.477-15.5V132Z" transform="translate(-354.5 -132)" fill="#0081a7"/></g><g transform="translate(151.757 156.277)"><path d="M376.1,134.776v30.351l26.477-15.176V119.6Z" transform="translate(-376.1 -119.6)" fill="#30afe8"/></g><g transform="translate(136.904 140.012)"><path d="M403.466,114.684l-31.966,18.4a2.419,2.419,0,0,1,.323,1.614c0,.646-.323,1.292-.323,2.26l31.966-18.4a2.718,2.718,0,0,0,1.292-2.26v-.646C404.757,114.684,404.112,114.361,403.466,114.684Z" transform="translate(-371.5 -114.562)" fill="#0081a7"/></g><g transform="translate(116.885 176.296)"><path d="M365.3,140.976v30.351l26.477-15.176V125.8Z" transform="translate(-365.3 -125.8)" fill="#c1deea"/></g><g transform="translate(131.415 158.053)"><path d="M372.706,120.634a8.791,8.791,0,0,0-2.583,3.229,5.494,5.494,0,0,0-.323,2.26,13.983,13.983,0,0,0,.323,1.614,1.953,1.953,0,0,0,2.583,0,8.791,8.791,0,0,0,2.583-3.229,5.494,5.494,0,0,0,.323-2.26,13.981,13.981,0,0,0-.323-1.614A1.953,1.953,0,0,0,372.706,120.634Zm0,5.489c-.969.646-1.614,0-1.614-.969a2.876,2.876,0,0,1,1.614-2.583c.969-.646,1.614,0,1.614.969A3.864,3.864,0,0,1,372.706,126.123Z" transform="translate(-369.8 -120.15)" fill="#fff"/></g><g transform="translate(132.707 160.152)"><path d="M371.814,121.123a3.293,3.293,0,0,0-1.614,2.583c0,.969.646,1.292,1.614.969a3.293,3.293,0,0,0,1.614-2.583C373.429,120.8,372.783,120.477,371.814,121.123Z" transform="translate(-370.2 -120.8)" fill="#0081a7"/></g><g transform="translate(12.27 127.54)"><path d="M332.9,206.275v19.05L498.541,129.75V110.7Zm156.6-79.107-31.966,18.4a8.792,8.792,0,0,1-2.583,3.229,1.953,1.953,0,0,1-2.583,0L341.941,212.41c-.646.323-1.291,0-1.291-.646v-.646a2.718,2.718,0,0,1,1.291-2.26l110.428-63.609a8.792,8.792,0,0,1,2.583-3.229,1.953,1.953,0,0,1,2.583,0l31.966-18.4c.646-.323,1.292,0,1.292.646v.646A2.718,2.718,0,0,1,489.5,127.167Z" transform="translate(-332.9 -110.7)" fill="#243551"/></g><g transform="translate(68.451 88.37)"><path d="M376.978,102.38c-14.563,8.274-26.478,28.8-26.478,45.675s11.915,23.5,26.478,15.225c14.563-8.605,26.478-29.126,26.478-45.675C403.457,100.725,391.541,94.106,376.978,102.38ZM369.7,150.372V124.225l18.866,1.986Z" transform="translate(-350.5 -98.826)" fill="#c1deea"/></g><g transform="translate(11.947 18.727)"><path d="M332.8,172.575l.323,108.49L498.764,185.49,498.441,77Zm82.982,40.684c-15.5,9.041-28.091,1.614-28.091-16.144s12.593-39.715,28.091-48.756,28.091-1.614,28.414,16.144C443.873,182.261,431.281,204.218,415.782,213.258Z" transform="translate(-332.8 -77)" fill="#30afe8"/></g><g transform="translate(66.838 86.225)"><path d="M377.891,101.765c-15.5,9.041-28.091,30.674-28.091,48.756,0,17.759,12.593,25.185,28.091,16.144s28.091-30.674,28.091-48.756C405.982,100.15,393.39,92.724,377.891,101.765Zm0,61.994c-14.207,8.072-25.831,1.614-25.831-14.853s11.624-36.486,25.831-44.558c14.207-8.4,25.831-1.614,25.831,14.853S392.1,155.687,377.891,163.759Z" transform="translate(-349.8 -97.904)" fill="#fff"/></g><path d="M329.1,180.659l.646,191.149L518.958,262.349,518.312,71.2Zm11.947,4.843L506.688,89.927l.323,108.49v19.05L341.37,313.043Zm.323,167.9V323.052l26.477-15.176v30.351Zm34.872-20.019V303.033l26.477-15.176v30.351Zm34.872-20.019V283.014l26.477-15.176V298.19Zm34.872-20.342V262.672L472.462,247.5v30.351ZM480.857,273V242.653l26.477-15.176v30.351Z" transform="translate(-329.1 -71.2)" fill="#fff"/><g transform="translate(47.142 216.657)"><path d="M343.7,153.476v30.351l26.477-15.176V138.3Z" transform="translate(-343.7 -138.3)" fill="#c1deea"/></g><g transform="translate(86.824 111.354)"><path d="M356.3,138.8l23.3-29.846L356.3,106.5Z" transform="translate(-356.3 -106.5)" fill="#fff"/></g><g transform="translate(20.019 161.767)"><path d="M447.019,121.3,336.592,184.909a2.718,2.718,0,0,0-1.292,2.26v.646c0,.969.646,1.292,1.292.646l110.428-63.609a2.419,2.419,0,0,1-.323-1.614A4.094,4.094,0,0,1,447.019,121.3Z" transform="translate(-335.3 -121.3)" fill="#0081a7"/></g></g></g><g transform="translate(1074.557 308.07)"><path d="M566.7,227.649c-7.749-1.292-20.342,3.552-28.091,5.166-23.894,3.875-47.464,8.072-71.358,11.947a17,17,0,0,0-7.749,2.583c-2.26,1.614-3.875,4.52-2.906,7.1,1.292,3.229,5.489,4.2,9.041,4.52A232.948,232.948,0,0,0,579.3,239.6C585.107,237.013,568.963,227.972,566.7,227.649Z" transform="translate(-451.432 136.68)" fill="#243551" opacity="0.06"/><g transform="translate(0 52.064)"><path d="M510.336,131.469c-9.364-2.906-16.467,4.2-17.436,8.4-.646,3.229-8.072,61.026-9.041,67.806,0,.323-.323.969-.323,1.292L464.164,253.52a7.064,7.064,0,0,1-.969,1.614l-5.812,7.749a6.818,6.818,0,0,0-1.292,3.229L454.8,277.091a1.823,1.823,0,0,0,1.937,0,1.127,1.127,0,0,1-.323.646l.323,9.041s1.291.646,2.26-1.292l1.615,3.875c1.937,0,2.26-2.26,1.937-4.2l.969,2.906c3.229.323,1.614-6.458,1.614-6.458l.323-.969,1.292,5.166c2.583.969,1.615-4.2,1.615-4.2l-.323-4.843v-1.614a11.474,11.474,0,0,1,.646-3.229c1.614-2.906,3.552-7.749,3.229-11.3a9.537,9.537,0,0,1,.646-4.2l24.862-42.944c.323-.646.323-.969.646-1.614,1.292-5.489,6.781-38.1,11.3-54.245,2.583-8.718,3.875-14.207,4.843-17.759C515.826,136.312,513.888,132.76,510.336,131.469Z" transform="translate(-454.8 -130.79)" fill="#df9877"/><path d="M509.222,131.185H508.9c-4.521-1.292-9.364,2.26-8.718,7.1v2.26c-1.937,11.624-6.458,21.956-9.687,33.257s0,22.6-2.583,33.9c-2.26,9.687-21.311,45.527-25.508,52.953-3.229,5.489-5.166,10.978-7.1,16.79a1.186,1.186,0,0,0,.969-.323,1.127,1.127,0,0,1-.323.646l.323,9.041s1.292.646,2.26-1.292l1.614,3.875c1.937,0,2.26-2.26,1.937-4.2l.969,2.906c3.229.323,1.614-6.458,1.614-6.458l.323-.969,1.292,5.166c2.583.969,1.615-4.2,1.615-4.2l-.323-4.843v-1.615a11.475,11.475,0,0,1,.646-3.229c1.615-2.906,3.552-7.749,3.229-11.3a9.537,9.537,0,0,1,.646-4.2l24.862-42.944c.323-.646.323-.969.646-1.614,1.292-5.489,6.781-38.1,11.3-54.245,2.583-8.718,3.875-14.207,4.843-17.759A7.154,7.154,0,0,0,509.222,131.185Z" transform="translate(-453.686 -130.505)" opacity="0.07"/></g><path d="M480.537,226.1c-1.937,8.4-15.176,18.4-19.7,21.956a40.231,40.231,0,0,0-5.812,5.166,2.292,2.292,0,0,0,1.291,2.583c.969.969,8.718,2.906,13.561.969s9.687-7.1,16.467-8.4c7.1-1.292,8.718-3.552,8.718-3.552,1.937-7.426-1.292-18.082-1.292-18.082Z" transform="translate(-454.384 133.709)" fill="#c1deea"/><path d="M483.021,236.066c-4.2,1.937-7.426,5.166-11.947,7.1-5.489,2.26-10.978,2.906-15.821-.646l-.323.323a2.292,2.292,0,0,0,1.292,2.583c.969.969,8.718,2.906,13.561.969s9.687-7.1,16.467-8.4c7.1-1.292,8.718-3.552,8.718-3.552a12.1,12.1,0,0,0,.323-3.552l-.323.323C491.416,233.806,487.218,234.129,483.021,236.066Z" transform="translate(-454.607 144.407)" fill="#ff8484"/><path d="M461.469,229.3l-.969.969a14.158,14.158,0,0,1,6.458,3.552l.969-.646C465.02,228.981,461.469,229.3,461.469,229.3Z" transform="translate(-442.096 140.837)" fill="#ff8484"/><path d="M460.869,230l-.969.969a14.156,14.156,0,0,1,6.458,3.552l.969-.646C464.42,229.681,460.869,230,460.869,230Z" transform="translate(-443.433 142.397)" fill="#ff8484"/><path d="M460.069,230.7l-.969.969a14.156,14.156,0,0,1,6.458,3.552l.969-.646C463.62,230.381,460.069,230.7,460.069,230.7Z" transform="translate(-445.216 143.958)" fill="#ff8484"/><path d="M499.746,220.4l-10.655,7.1,1.614,25.185c-2.26,6.781-3.875,9.041-1.291,10.978,3.875,2.26,12.593-.646,16.467-9.364,1.615-3.875,6.135-25.185,3.552-27.768C507.172,224.275,499.746,220.4,499.746,220.4Z" transform="translate(-380.601 121.004)" fill="#c1deea"/><path d="M508.119,222c-.646,14.853-.323,23.894-7.1,31.32-3.229,3.552-6.781,3.875-11.624,4.843H488.1a1.771,1.771,0,0,0,1.292,1.937c3.875,2.26,12.593-.646,16.467-9.364,1.614-3.875,6.135-25.185,3.552-27.768A4.459,4.459,0,0,0,508.119,222Z" transform="translate(-380.579 124.57)" fill="#ff8484"/><path d="M488.6,226.2v1.937s4.521.646,7.1,0V226.2S490.537,226.846,488.6,226.2Z" transform="translate(-379.464 133.932)" fill="#ff8484"/><path d="M488.7,227.2v1.292a19.55,19.55,0,0,0,6.781,0V227.2A18.8,18.8,0,0,1,488.7,227.2Z" transform="translate(-379.241 136.161)" fill="#ff8484"/><path d="M488.7,228.2v1.614a11.716,11.716,0,0,0,6.458,0V228.2C495.48,228.2,492.9,229.169,488.7,228.2Z" transform="translate(-379.241 138.389)" fill="#ff8484"/><path d="M527.634,297.593a97.444,97.444,0,0,0-13.561-21.633l6.781-63.932s2.26-15.176,2.26-20.342c0-24.217-6.458-20.988-6.458-20.988L467.9,178.448l14.853,37.132s4.52,41.652,8.072,63.609a14.07,14.07,0,0,0,2.26,9.041c16.467,20.342,42.3,52.631,42.3,52.631s1.615,2.583,7.749,0c5.166-2.26,4.2-8.072,4.2-8.072A203.864,203.864,0,0,1,527.634,297.593Z" transform="translate(-425.602 9.908)" fill="#ff8484"/><path d="M477.828,167.6c-10.978,55.214-15.176,78.784-17.436,94.929a23.93,23.93,0,0,0,.323,6.781c.646,5.812,1.614,14.207,2.26,20.019,6.781,56.182,5.489,68.452,5.489,68.452s1.292,2.583,8.072,1.937c4.843-.323,6.458-2.583,6.458-2.583s3.552-34.549,3.552-45.85c0-9.687-3.229-31.32-3.875-37.132L503.336,212.8Z" transform="translate(-442.634 3.32)" fill="#ff8484"/><path d="M471.37,285.131c-1.937-19.05-.323-35.84,1.937-54.568,1.937-14.53,3.229-29.383,6.135-43.59v-2.26q.485-6.3.969-12.593l-2.583-4.52c-10.978,55.214-15.176,78.784-17.436,94.929a23.93,23.93,0,0,0,.323,6.781c.646,5.812,1.614,14.207,2.26,20.019,6.781,56.182,5.489,68.452,5.489,68.452s1.292,2.583,8.072,1.937a7.527,7.527,0,0,0,4.521-1.291,80.516,80.516,0,0,1-6.781-21.633C472.016,319.68,473.308,302.244,471.37,285.131Z" transform="translate(-442.634 3.32)" opacity="0.05"/><path d="M519.479,293.919c-7.427-10.332-17.759-19.373-24.217-30.351-5.489-9.364-6.458-20.988-8.4-31.32-2.583-13.884-4.2-28.091-6.781-42.3-1.292-1.614-7.749-6.458-9.687-7.749l6.781,7.749s4.52,41.652,8.072,63.609a14.069,14.069,0,0,0,2.26,9.041c16.467,20.342,42.3,52.631,42.3,52.631s1.615,2.583,7.749,0a1.127,1.127,0,0,0,.646-.323C530.78,308.772,524.968,301.668,519.479,293.919Z" transform="translate(-420.03 35.861)" opacity="0.05"/><path d="M537.929,153.968c-2.906-6.458-11.947-13.884-20.988-17.759a71.286,71.286,0,0,0-31.966-5.166c-3.229.323-4.2.969-4.2.969s-3.552.646-5.166,6.781c-.646,2.583-.323,7.749-.969,11.624l-5.166,13.238-5.166,14.853c-3.229,12.27,5.166,18.4,5.166,18.4L474,225.649l-8.072,36.163s40.038,23.248,66.515,2.583l-7.426-33.9a15.715,15.715,0,0,1-.323-3.875C527.273,191.745,545.032,169.789,537.929,153.968Z" transform="translate(-435.251 -78.623)" fill="#c1deea"/><path d="M478.94,196.6c-1.292-8.072-2.583-15.821-2.26-24.217-7.426-8.718-9.687-18.727-9.364-29.383l-2.906,8.4c-3.229,12.27,5.166,18.4,5.166,18.4l4.52,28.737L466.025,234.7a115.622,115.622,0,0,0,14.53,6.458,26.9,26.9,0,0,1-1.291-4.843C476.68,223.4,478.617,209.838,478.94,196.6Z" transform="translate(-435.028 -51.511)" opacity="0.07"/><path d="M485.321,130.642c-12.592,2.26-14.853,11.947-13.884,13.884s4.843,6.458,15.176,3.229c12.27-3.875,12.27-10.332,12.27-10.332S493.393,129.028,485.321,130.642Z" transform="translate(-418.161 -79.514)" fill="#df9877"/><path d="M495.294,129.76l-20.665-2.26s-4.2,15.821-3.229,23.571l27.446-7.1C499.168,143.967,494.648,135.9,495.294,129.76Z" transform="translate(-418.124 -86.058)" fill="#df9877"/><path d="M472.776,150.851c13.561,11.624,22.925-15.176,22.925-15.176l.969-5.812L476,127.6C475.682,127.28,466.964,146.007,472.776,150.851Z" transform="translate(-419.177 -85.838)" fill="#d28f71"/><path d="M504.547,119.8,465.8,126.258l7.749,24.862c3.875,10.655,11.947,19.373,21.31,12.915,0,0,15.822-11.624,14.207-23.571Z" transform="translate(-430.283 -103.22)" fill="#df9877"/><path d="M481.588,116.392c-25.831,10.009-13.884,31-13.884,31a46.351,46.351,0,0,0,32.612-1.614l7.749,18.4c1.292,3.552,4.843,8.072,4.843,8.072l9.364,4.52c1.292,1.614-2.906-27.445-6.458-41.007C513.231,125.756,499.347,109.288,481.588,116.392Z" transform="translate(-432.187 -114.665)" fill="#45393f"/><g transform="translate(18.676 72.191)"><path d="M470.609,157.822c-3.552.323-8.4.969-8.4.969A23.428,23.428,0,0,0,460.6,161.7c3.875,4.2,17.113,15.821,17.113,15.821l7.1-10.655-8.718-6.781C476.1,159.759,473.838,157.5,470.609,157.822Z" transform="translate(-460.548 -90.736)" fill="#333"/><path d="M470.645,157.822c-3.552.323-8.4.969-8.4.969s-.969,0-.969.646l-.646,1.614s-.323.646.646.969c0,0-.323-.646.323-.646,1.615,0,5.812-.646,8.4-.969a8.8,8.8,0,0,1,5.166,1.292c.323.323,9.041,7.426,9.041,7.426l.969-2.583-8.718-6.781C476.134,159.759,473.874,157.5,470.645,157.822Z" transform="translate(-460.584 -90.736)" fill="#666"/><path d="M555.123,203.141h0c-1.937-10.01-6.135-29.06-9.687-41.652a206.09,206.09,0,0,0-6.78-19.7,7.855,7.855,0,0,0-9.041-4.52c-9.041,2.583-10.009,15.821-9.364,18.4s11.3,32.934,16.467,47.787C518.314,208.307,497,215.41,497,215.41h-.646l-8.718-4.2-6.458-2.583a7.6,7.6,0,0,0-2.583-.646l-6.135-.323s1.937,1.614,2.583,2.26c0,0,.969,1.292,1.292,1.292.323.646,0,1.937-.323,2.906,0,0-1.292,1.292-5.489,1.614a48.3,48.3,0,0,1-7.426,0s0,3.552,5.166,4.52a4.663,4.663,0,0,0,3.552,3.552s1.615,2.906,4.52,2.906a9.166,9.166,0,0,0,5.489,1.937s8.4,0,14.53-3.552l5.812-.646,46.173-4.843c4.52-.323,8.718-2.906,8.718-8.072l-1.292-6.458Z" transform="translate(-454.976 -137.023)" fill="#df9877"/><path d="M481.369,140.6c-.646,3.229-.646,6.135-.323,7.1.646,2.26,10.978,31.643,16.144,46.819,1.292,0,4.2-7.1-2.583-24.862C490.733,159.973,482.015,150.932,481.369,140.6Z" transform="translate(-415.449 -129.05)" opacity="0.07"/><path d="M467.075,161.6H463.2s0,3.552,5.166,4.52a4.663,4.663,0,0,0,3.552,3.552s1.615,2.906,4.521,2.906a9.165,9.165,0,0,0,5.489,1.937s8.395,0,14.53-3.552h.323a56.24,56.24,0,0,1-7.1-1.614C481.282,168.381,473.209,166.12,467.075,161.6Z" transform="translate(-454.753 -82.244)" opacity="0.07"/></g><path d="M470.5,153.552s19.373,14.207,30.674-3.552C501.174,150.323,486,160.655,470.5,153.552Z" transform="translate(-419.807 -35.908)" opacity="0.07"/></g><g transform="translate(376.541 779.115)"><g transform="translate(0 54.568)"><path d="M326.4,324l58.765,34.226L443.931,324l-58.442-33.9Z" transform="translate(-326.4 -290.1)" fill="#243551"/><g transform="translate(0 33.903)"><path d="M326.4,300.6l.323,61.349,58.443,33.9V334.826Z" transform="translate(-326.4 -300.6)" fill="#e7f1f4"/></g><g transform="translate(58.766 33.903)"><path d="M344.6,334.826v61.026l58.765-33.9V300.6Z" transform="translate(-344.6 -300.6)" fill="#cfdfe5"/></g></g><g transform="translate(29.221 66.111)"><path d="M393.731,308.931,368.546,294.4a8.274,8.274,0,0,0-6.781,0L336.9,308.931c-1.937.969-1.937,2.906,0,3.875l25.185,14.53a8.274,8.274,0,0,0,6.781,0l24.862-14.53C395.346,311.515,395.346,309.9,393.731,308.931Z" transform="translate(-335.45 -293.675)" fill="#fff"/><path d="M393.62,300.937l-24.862,14.53a8.274,8.274,0,0,1-6.781,0l-25.185-14.53A2.335,2.335,0,0,1,335.5,299v8.072a2.335,2.335,0,0,0,1.292,1.937l25.185,14.53a8.275,8.275,0,0,0,6.781,0l24.862-14.53a2.335,2.335,0,0,0,1.292-1.937V299C394.911,299.646,394.265,300.292,393.62,300.937Z" transform="translate(-335.339 -281.806)" fill="#c1deea"/><path d="M393.62,300.937l-24.862,14.53a8.274,8.274,0,0,1-6.781,0l-25.185-14.53A2.335,2.335,0,0,1,335.5,299v1.937a2.335,2.335,0,0,0,1.292,1.937l25.185,14.53a8.274,8.274,0,0,0,6.781,0l24.862-14.53a2.335,2.335,0,0,0,1.292-1.937V299C394.911,299.646,394.265,300.292,393.62,300.937Z" transform="translate(-335.339 -281.806)" fill="#69b5cf"/></g><g transform="translate(14.53)"><g transform="translate(23.571 33.096)"><path d="M339.169,291.684a2.968,2.968,0,0,0,4.2,4.2,22.023,22.023,0,0,1,31.32,0,2.791,2.791,0,0,0,1.937.969,2.3,2.3,0,0,0,1.937-.969,2.758,2.758,0,0,0,0-4.2A27.675,27.675,0,0,0,339.169,291.684Z" transform="translate(-338.2 -283.45)" fill="#c1deea"/></g><g transform="translate(11.947 16.306)"><path d="M335.569,291.327a2.968,2.968,0,1,0,4.2,4.2,38.781,38.781,0,0,1,54.891,0,2.791,2.791,0,0,0,1.937.969,2.3,2.3,0,0,0,1.937-.969,2.758,2.758,0,0,0,0-4.2A44.433,44.433,0,0,0,335.569,291.327Z" transform="translate(-334.6 -278.25)" fill="#c1deea"/></g><path d="M375.135,273.2a62.188,62.188,0,0,0-43.267,17.759,2.968,2.968,0,0,0,4.2,4.2,55.346,55.346,0,0,1,78.139,0,2.791,2.791,0,0,0,1.937.969,2.3,2.3,0,0,0,1.937-.969,2.758,2.758,0,0,0,0-4.2A60.3,60.3,0,0,0,375.135,273.2Z" transform="translate(-330.9 -273.2)" fill="#c1deea"/></g></g></g></g></g></svg>